<svg id="S등급" xmlns="http://www.w3.org/2000/svg" width="49.209" height="54.277" viewBox="0 0 49.209 54.277">
  <path id="패스_235" data-name="패스 235" d="M84.124,45.8h0a8.069,8.069,0,0,0,8.257,4.767h0a8.07,8.07,0,0,1,7.385,12.79h0a8.07,8.07,0,0,0,0,9.534h0a8.071,8.071,0,0,1-7.385,12.791h0a8.069,8.069,0,0,0-8.257,4.767h0a8.07,8.07,0,0,1-14.768,0h0A8.07,8.07,0,0,0,61.1,85.677h0a8.071,8.071,0,0,1-7.384-12.791h0a8.07,8.07,0,0,0,0-9.534h0A8.07,8.07,0,0,1,61.1,50.563h0A8.07,8.07,0,0,0,69.356,45.8h0A8.07,8.07,0,0,1,84.124,45.8Z" transform="translate(-52.135 -40.981)" fill="#fff"/>
  <g id="그룹_822" data-name="그룹 822" transform="translate(-323.973 -44.703)">
    <path id="패스_241" data-name="패스 241" d="M355.869,77.708c-1.346,2.745-3.66,3.471-7,3.471-5.087,0-8.047-1.884-8.047-9.742,0-6.566,2.206-8.935,8.047-8.935,4.736,0,7.455,1.669,7.455,5.947a12.459,12.459,0,0,1-.081,1.373h-2.287a9.794,9.794,0,0,0,.081-1.211c0-2.96-1.938-4.036-5.167-4.036-4.253,0-5.678,1.588-5.678,6.863,0,6.19,1.857,7.669,5.678,7.669,2.449,0,4.063-.592,5.059-2.556Z" fill="#d64acd" stroke="#d64acd" stroke-miterlimit="10" stroke-width="1"/>
  </g>
</svg>
