<svg id="S등급" xmlns="http://www.w3.org/2000/svg" width="49.209" height="54.277" viewBox="0 0 49.209 54.277">
  <path id="패스_235" data-name="패스 235" d="M84.124,45.8h0a8.069,8.069,0,0,0,8.257,4.767h0a8.07,8.07,0,0,1,7.385,12.79h0a8.07,8.07,0,0,0,0,9.534h0a8.071,8.071,0,0,1-7.385,12.791h0a8.069,8.069,0,0,0-8.257,4.767h0a8.07,8.07,0,0,1-14.768,0h0A8.07,8.07,0,0,0,61.1,85.677h0a8.071,8.071,0,0,1-7.384-12.791h0a8.07,8.07,0,0,0,0-9.534h0A8.07,8.07,0,0,1,61.1,50.563h0A8.07,8.07,0,0,0,69.356,45.8h0A8.07,8.07,0,0,1,84.124,45.8Z" transform="translate(-52.135 -40.981)" fill="#fff"/>
  <g id="그룹_820" data-name="그룹 820" transform="translate(-143.651 -44.464)">
    <path id="패스_239" data-name="패스 239" d="M163.573,67.333c.725-1.889,1.164-3.079,1.682-4.4h6.028c.492,1.32.957,2.509,1.656,4.4,1.888,5.045,3.337,9.081,3.493,12.937H174.1a19.474,19.474,0,0,0-.673-4.244H163a21.12,21.12,0,0,0-.646,4.244H160.08C160.235,76.414,161.658,72.378,163.573,67.333Zm6.132-2.406h-2.949c-.259.646-.466,1.215-.932,2.458-.906,2.588-1.682,4.761-2.277,6.727h9.367c-.6-1.967-1.4-4.139-2.277-6.727C170.2,66.143,169.963,65.574,169.7,64.927Z" transform="translate(0 0)" fill="#d64acd" stroke="#d64acd" stroke-miterlimit="10" stroke-width="1"/>
  </g>
</svg>
