<svg id="S등급" xmlns="http://www.w3.org/2000/svg" width="49.209" height="54.277" viewBox="0 0 49.209 54.277">
  <path id="패스_235" data-name="패스 235" d="M84.124,45.8h0a8.069,8.069,0,0,0,8.257,4.767h0a8.07,8.07,0,0,1,7.385,12.79h0a8.07,8.07,0,0,0,0,9.534h0a8.071,8.071,0,0,1-7.385,12.791h0a8.069,8.069,0,0,0-8.257,4.767h0a8.07,8.07,0,0,1-14.768,0h0A8.07,8.07,0,0,0,61.1,85.677h0a8.071,8.071,0,0,1-7.384-12.791h0a8.07,8.07,0,0,0,0-9.534h0A8.07,8.07,0,0,1,61.1,50.563h0A8.07,8.07,0,0,0,69.356,45.8h0A8.07,8.07,0,0,1,84.124,45.8Z" transform="translate(-52.135 -40.981)" fill="#fff"/>
  <g id="그룹_193" data-name="그룹 193" transform="translate(17.146 16.484)">
    <path id="패스_238" data-name="패스 238" d="M76.066,77.611c.771,1.3,2.922,1.93,5.624,1.93,3.97,0,4.962-.772,4.962-2.84,0-1.847-.827-2.315-3.364-2.4l-3.97-.165c-3.722-.137-4.8-2.784-4.8-5.955,0-3.666,1.847-5.679,7.223-5.679,6.451,0,7.719,1.765,7.719,5.266a14.78,14.78,0,0,1-.165,1.9H86.873a9.588,9.588,0,0,0,.11-1.571c0-2.206-.331-3.5-5.155-3.5C78.023,64.6,77,65.867,77,68.127c0,2.013.579,3.86,2.7,3.943l3.887.165c3.805.138,5.349.965,5.349,4.383,0,3.557-1.9,5.017-7.168,5.017-3.336,0-5.817-.662-7.03-2.316Z" transform="translate(-74.522 -62.504)" fill="#d64acd" stroke="#d64acd" stroke-miterlimit="10" stroke-width="1"/>
  </g>
</svg>
