<svg id="S등급" xmlns="http://www.w3.org/2000/svg" width="49.209" height="54.277" viewBox="0 0 49.209 54.277">
  <path id="패스_235" data-name="패스 235" d="M84.124,45.8h0a8.069,8.069,0,0,0,8.257,4.767h0a8.07,8.07,0,0,1,7.385,12.79h0a8.07,8.07,0,0,0,0,9.534h0a8.071,8.071,0,0,1-7.385,12.791h0a8.069,8.069,0,0,0-8.257,4.767h0a8.07,8.07,0,0,1-14.768,0h0A8.07,8.07,0,0,0,61.1,85.677h0a8.071,8.071,0,0,1-7.384-12.791h0a8.07,8.07,0,0,0,0-9.534h0A8.07,8.07,0,0,1,61.1,50.563h0A8.07,8.07,0,0,0,69.356,45.8h0A8.07,8.07,0,0,1,84.124,45.8Z" transform="translate(-52.135 -40.981)" fill="#fff"/>
  <g id="그룹_821" data-name="그룹 821" transform="translate(-234.886 -44.463)">
    <path id="패스_240" data-name="패스 240" d="M252.673,62.935H260.2c4.476,0,6.105,1.733,6.105,4.863a4.939,4.939,0,0,1-2.147,4.268,3.54,3.54,0,0,1,1.966,3.545c0,3-1.475,4.656-5.484,4.656h-7.967Zm9.6,8.614a4.132,4.132,0,0,0,1.759-3.6c0-1.992-1.035-3.13-3.829-3.13h-5.226v6.622h5.665A10.578,10.578,0,0,1,262.27,71.549ZM260.64,78.3c2.587,0,3.208-1.061,3.208-2.768,0-1.474-.854-2.328-3.208-2.328h-5.665v5.1Z" fill="#d64acd" stroke="#d64acd" stroke-miterlimit="10" stroke-width="1"/>
  </g>
</svg>
