<svg xmlns="http://www.w3.org/2000/svg" xmlns:xlink="http://www.w3.org/1999/xlink" width="34" height="34" viewBox="0 0 34 34">
  <defs>
    <clipPath id="clip-path">
      <rect id="사각형_9356" data-name="사각형 9356" width="15.233" height="17.807" fill="none"/>
    </clipPath>
  </defs>
  <g id="그룹_326" data-name="그룹 326" transform="translate(-114 -1734)">
    <circle id="타원_10" data-name="타원 10" cx="17" cy="17" r="17" transform="translate(114 1734)" fill="#5a6a9f"/>
    <g id="그룹_276" data-name="그룹 276" transform="translate(123 1745)">
      <path id="패스_244" data-name="패스 244" d="M13.438,2.244,4.23,7.412l9.208,5.157" transform="translate(-1.217 -1.509)" fill="none" stroke="#fff" stroke-linejoin="round" stroke-width="2"/>
      <g id="그룹_275" data-name="그룹 275" transform="translate(0 -3)">
        <g id="그룹_274" data-name="그룹 274" clip-path="url(#clip-path)">
          <path id="패스_245" data-name="패스 245" d="M5.336,9.2A2.168,2.168,0,1,1,3.168,7.036,2.168,2.168,0,0,1,5.336,9.2" transform="translate(-0.329 -0.3)" fill="#fff"/>
          <circle id="타원_11" data-name="타원 11" cx="2.168" cy="2.168" r="2.168" transform="translate(0.671 6.736)" fill="none" stroke="#fff" stroke-linejoin="round" stroke-width="1"/>
          <path id="패스_246" data-name="패스 246" d="M19.574,3.168A2.168,2.168,0,1,1,17.406,1a2.168,2.168,0,0,1,2.168,2.168" transform="translate(-5.011 0.342)" fill="#fff"/>
          <circle id="타원_12" data-name="타원 12" cx="2.168" cy="2.168" r="2.168" transform="translate(10.227 1.342)" fill="none" stroke="#fff" stroke-linejoin="round" stroke-width="1"/>
          <path id="패스_247" data-name="패스 247" d="M19.574,15.24a2.168,2.168,0,1,0-2.168,2.168,2.168,2.168,0,0,0,2.168-2.168" transform="translate(-5.011 -0.943)" fill="#fff"/>
          <circle id="타원_13" data-name="타원 13" cx="2.168" cy="2.168" r="2.168" transform="translate(10.227 12.129)" fill="none" stroke="#fff" stroke-linejoin="round" stroke-width="1"/>
        </g>
      </g>
    </g>
  </g>
</svg>
