<svg id="그룹_64" data-name="그룹 64" xmlns="http://www.w3.org/2000/svg" xmlns:xlink="http://www.w3.org/1999/xlink" width="40" height="40" viewBox="0 0 40 40">
  <defs>
    <clipPath id="clip-path">
      <rect id="사각형_48" data-name="사각형 48" width="40" height="39.999" fill="none"/>
    </clipPath>
  </defs>
  <g id="그룹_63" data-name="그룹 63" transform="translate(0 0)" clip-path="url(#clip-path)">
    <path id="패스_115" data-name="패스 115" d="M40,20A20,20,0,1,1,20,0,20,20,0,0,1,40,20" transform="translate(0 0)" fill="#e2e2e2"/>
    <path id="패스_116" data-name="패스 116" d="M41.789,23.879A20,20,0,0,1,4.942,34.661a20,20,0,0,0,31.91-23.94,19.924,19.924,0,0,1,4.937,13.158" transform="translate(-1.789 -3.882)" fill="#d2d2d2"/>
    <path id="패스_117" data-name="패스 117" d="M24.516,40.719c0-.006.013-.014.017-.02a5.052,5.052,0,0,1,3.88-2.118A5.257,5.257,0,0,1,32.288,40.7c1.888,2.2,1.292,3.727.69,3.176-.008-.007-.009,0-.013-.006a7,7,0,0,0-4.552-2.321c-1.714,0-3.28,1.2-4.552,2.321a.085.085,0,0,0-.022.02c-.565.537-1.047-.86.677-3.17" transform="translate(-8.443 -13.969)" fill="#4b4b4b"/>
    <path id="패스_118" data-name="패스 118" d="M45.437,21.581c0,2.122-1.243,3.843-2.777,3.843s-2.776-1.721-2.776-3.843,1.243-3.843,2.776-3.843,2.777,1.721,2.777,3.843" transform="translate(-14.44 -6.422)" fill="#4b4b4b"/>
    <path id="패스_119" data-name="패스 119" d="M45.573,22.2c0,2.126-1.242,3.845-2.776,3.845a2.9,2.9,0,0,1-2.537-2.293,2.437,2.437,0,0,0,1.94,1.1c1.535,0,2.776-1.719,2.776-3.845a4.865,4.865,0,0,0-.245-1.558,4.635,4.635,0,0,1,.842,2.752" transform="translate(-14.577 -7.04)" fill="#4b4b4b"/>
    <path id="패스_120" data-name="패스 120" d="M19.666,21.581c0,2.122-1.243,3.843-2.777,3.843s-2.776-1.721-2.776-3.843,1.243-3.843,2.776-3.843,2.777,1.721,2.777,3.843" transform="translate(-5.11 -6.422)" fill="#4b4b4b"/>
    <path id="패스_121" data-name="패스 121" d="M19.8,22.2c0,2.126-1.241,3.845-2.776,3.845a2.9,2.9,0,0,1-2.537-2.293,2.437,2.437,0,0,0,1.941,1.1c1.534,0,2.776-1.719,2.776-3.845a4.883,4.883,0,0,0-.244-1.558A4.639,4.639,0,0,1,19.8,22.2" transform="translate(-5.246 -7.04)" fill="#4b4b4b"/>
    <path id="패스_122" data-name="패스 122" d="M48.039,12.834c1.162.48,1.024,1.361-.084,1.265a10.76,10.76,0,0,1-5.879-2.261c-.861-.729-1.023-1.5-.76-2.014s1.034-1.174,2.341.076a13.567,13.567,0,0,0,4.382,2.935" transform="translate(-14.918 -3.325)" fill="#4b4b4b"/>
    <path id="패스_123" data-name="패스 123" d="M10.323,12.834c-1.162.48-1.024,1.361.084,1.265a10.76,10.76,0,0,0,5.879-2.261c.86-.729,1.023-1.5.76-2.014S16.011,8.65,14.7,9.9a13.567,13.567,0,0,1-4.382,2.935" transform="translate(-3.444 -3.325)" fill="#4b4b4b"/>
    <path id="패스_124" data-name="패스 124" d="M47.749,44.024a2.927,2.927,0,0,1-2.054-.746,2.958,2.958,0,0,1-.46-.525,3.742,3.742,0,0,1-.358-.645c-.048-.114-.1-.233-.138-.352a6.606,6.606,0,0,1-.3-2.5,5.951,5.951,0,0,1,.084-.848c.006-.042.012-.078.018-.119.019-.131.042-.269.072-.4.011-.084.03-.161.048-.245a20.376,20.376,0,0,1,3.086-6.376,22.728,22.728,0,0,1,2.394,4.245,12.931,12.931,0,0,1,.7,2.131c.734,3.188-.167,6.382-3.1,6.382" transform="translate(-16.085 -11.32)" fill="#00dffa"/>
    <path id="패스_125" data-name="패스 125" d="M47.75,46.433a2.927,2.927,0,0,1-2.054-.746,3.2,3.2,0,0,1-.46-.525,3.743,3.743,0,0,1-.358-.645c-.048-.114-.1-.233-.138-.352a6.736,6.736,0,0,1-.3-2.5,8.452,8.452,0,0,1,.084-.848c.006-.042.012-.078.018-.119.019-.131.042-.269.072-.4-.144,2.167.836,4.03,3.134,4.03s2.987-3.273,2.394-6.406a12.931,12.931,0,0,1,.7,2.131c.734,3.188-.167,6.382-3.1,6.382" transform="translate(-16.087 -13.73)" fill="#00bed6"/>
  </g>
</svg>
