<svg xmlns="http://www.w3.org/2000/svg" xmlns:xlink="http://www.w3.org/1999/xlink" width="40" height="39.999" viewBox="0 0 40 39.999">
  <defs>
    <clipPath id="clip-path">
      <rect id="사각형_42" data-name="사각형 42" width="40" height="39.999" fill="none"/>
    </clipPath>
  </defs>
  <g id="그룹_52" data-name="그룹 52" transform="translate(-0.001)">
    <g id="그룹_51" data-name="그룹 51" transform="translate(0.001 0)" clip-path="url(#clip-path)">
      <path id="패스_59" data-name="패스 59" d="M40,20A20,20,0,1,1,20,0,20,20,0,0,1,40,20" transform="translate(0 0)" fill="#e2e2e2"/>
      <path id="패스_60" data-name="패스 60" d="M41.79,23.879A20,20,0,0,1,4.943,34.661a20,20,0,0,0,31.91-23.94A19.924,19.924,0,0,1,41.79,23.879" transform="translate(-1.79 -3.882)" fill="#d2d2d2"/>
      <path id="패스_61" data-name="패스 61" d="M45.438,21.581c0,2.122-1.244,3.843-2.778,3.843s-2.776-1.721-2.776-3.843,1.243-3.843,2.776-3.843,2.778,1.721,2.778,3.843" transform="translate(-14.44 -6.422)" fill="#4b4b4b"/>
      <path id="패스_62" data-name="패스 62" d="M45.573,22.2c0,2.126-1.242,3.845-2.776,3.845a2.9,2.9,0,0,1-2.537-2.293,2.437,2.437,0,0,0,1.94,1.1c1.535,0,2.776-1.719,2.776-3.845a4.862,4.862,0,0,0-.245-1.558,4.635,4.635,0,0,1,.842,2.752" transform="translate(-14.577 -7.04)" fill="#4b4b4b"/>
      <path id="패스_63" data-name="패스 63" d="M19.667,21.581c0,2.122-1.244,3.843-2.778,3.843s-2.776-1.721-2.776-3.843,1.243-3.843,2.776-3.843,2.778,1.721,2.778,3.843" transform="translate(-5.11 -6.422)" fill="#4b4b4b"/>
      <path id="패스_64" data-name="패스 64" d="M19.8,22.2c0,2.126-1.242,3.845-2.776,3.845a2.9,2.9,0,0,1-2.537-2.293,2.437,2.437,0,0,0,1.94,1.1c1.535,0,2.776-1.719,2.776-3.845a4.862,4.862,0,0,0-.245-1.558A4.635,4.635,0,0,1,19.8,22.2" transform="translate(-5.246 -7.04)" fill="#4b4b4b"/>
      <path id="패스_65" data-name="패스 65" d="M45.6,14.023c.947.348,1.3-.892.545-1.555a6.972,6.972,0,0,0-5.817-1.616c-1.618.39-1.284,2.279,0,2.195a12.05,12.05,0,0,1,5.273.976" transform="translate(-14.205 -3.882)" fill="#4b4b4b"/>
      <path id="패스_66" data-name="패스 66" d="M12.954,14.023c-.947.348-1.3-.892-.545-1.555a6.973,6.973,0,0,1,5.817-1.616c1.618.39,1.283,2.279,0,2.195a12.05,12.05,0,0,0-5.273.976" transform="translate(-4.346 -3.882)" fill="#4b4b4b"/>
      <path id="패스_67" data-name="패스 67" d="M35.034,42.356c0,1.754-1.71,1.065-8.516,1.065S18,44.109,18,42.356c0-1.246,3.483-1.065,8.516-1.065s8.516-.181,8.516,1.065" transform="translate(-6.517 -14.947)" fill="#4b4b4b"/>
    </g>
  </g>
</svg>
