<svg xmlns="http://www.w3.org/2000/svg" xmlns:xlink="http://www.w3.org/1999/xlink" width="45.513" height="43" viewBox="0 0 45.513 43">
  <defs>
    <clipPath id="clip-path">
      <rect id="사각형_44" data-name="사각형 44" width="45.513" height="43" fill="none"/>
    </clipPath>
  </defs>
  <g id="그룹_56" data-name="그룹 56" transform="translate(2)">
    <g id="그룹_55" data-name="그룹 55" transform="translate(-2 0)" clip-path="url(#clip-path)">
      <path id="패스_75" data-name="패스 75" d="M48.664,24.736A19.986,19.986,0,1,1,28.678,4.75,19.986,19.986,0,0,1,48.664,24.736" transform="translate(-3.151 -1.722)" fill="#e2e2e2"/>
      <path id="패스_76" data-name="패스 76" d="M50.456,28.62A19.987,19.987,0,0,1,13.635,39.394,19.988,19.988,0,0,0,45.523,15.471,19.91,19.91,0,0,1,50.456,28.62" transform="translate(-4.943 -5.608)" fill="#d2d2d2"/>
      <path id="패스_77" data-name="패스 77" d="M42.1,45.576A4.773,4.773,0,1,1,37.33,40.8,4.756,4.756,0,0,1,42.1,45.576" transform="translate(-11.803 -14.791)" fill="#4b4b4b"/>
      <path id="패스_78" data-name="패스 78" d="M41.7,51.633a4.776,4.776,0,0,1-7.684,0,4.777,4.777,0,0,1,7.684,0" transform="translate(-12.332 -18.014)" fill="#fff"/>
      <path id="패스_79" data-name="패스 79" d="M50.644,31.364A5.524,5.524,0,0,1,46.5,29.726c-2-2.047-1.061-3.166-.576-2.563a5.8,5.8,0,0,0,4.615,2.454,5.111,5.111,0,0,0,4.264-2.47c.316-.418,1.076-.154.58,1.038a5.328,5.328,0,0,1-4.74,3.179" transform="translate(-16.413 -9.774)" fill="#4b4b4b"/>
      <path id="패스_80" data-name="패스 80" d="M23.6,31.364a5.523,5.523,0,0,0,4.142-1.638c2-2.047,1.061-3.166.576-2.563a5.8,5.8,0,0,1-4.615,2.454,5.108,5.108,0,0,1-4.263-2.47c-.316-.418-1.077-.154-.581,1.038a5.328,5.328,0,0,0,4.74,3.179" transform="translate(-6.778 -9.774)" fill="#4b4b4b"/>
      <path id="패스_81" data-name="패스 81" d="M17.2,19.879c-1.116.577-1.7-.1-.911-.88a10.742,10.742,0,0,1,5.517-3.029c1.111-.187,1.8.185,2.027.718s.229,1.546-1.568,1.738A13.56,13.56,0,0,0,17.2,19.879" transform="translate(-5.773 -5.771)" fill="#4b4b4b"/>
      <path id="패스_82" data-name="패스 82" d="M58.333,19.879c1.116.577,1.7-.1.912-.88a10.746,10.746,0,0,0-5.518-3.029c-1.111-.187-1.8.185-2.027.718s-.229,1.546,1.568,1.738a13.56,13.56,0,0,1,5.066,1.452" transform="translate(-18.704 -5.771)" fill="#4b4b4b"/>
      <path id="패스_83" data-name="패스 83" d="M0,10.75l8.841-2.2.451,1.758L5.431,16.67l5.493-1.8.848,3.1L2.8,20.227,2.127,17.7l3.841-5.934L.588,13.226Z" transform="translate(0 -3.099)" fill="#00bed6"/>
      <path id="패스_84" data-name="패스 84" d="M17.409,4l6.55.473-.071,1.095L20.166,9.276l3.8,0-.114,2.317-6.633-.811.086-1.539,3.258-3.288-3.31-.12Z" transform="translate(-6.243 -1.451)" fill="#00bed6"/>
      <path id="패스_85" data-name="패스 85" d="M31.023,0l4.636.99-.109.783L32.689,4.242l2.727.2-.2,1.613-4.731-.884.143-1.1,2.428-2.143L30.77,1.613Z" transform="translate(-11.052 0)" fill="#00bed6"/>
    </g>
  </g>
</svg>
