<svg xmlns="http://www.w3.org/2000/svg" xmlns:xlink="http://www.w3.org/1999/xlink" width="40" height="40" viewBox="0 0 40 40">
  <defs>
    <clipPath id="clip-path">
      <rect id="사각형_46" data-name="사각형 46" width="40" height="39.999" fill="none"/>
    </clipPath>
  </defs>
  <g id="그룹_60" data-name="그룹 60" transform="translate(-0.001)">
    <g id="그룹_59" data-name="그룹 59" transform="translate(0.001 0)" clip-path="url(#clip-path)">
      <path id="패스_98" data-name="패스 98" d="M40,20A20,20,0,1,1,20,0,20,20,0,0,1,40,20" transform="translate(0 0)" fill="#e2e2e2"/>
      <path id="패스_99" data-name="패스 99" d="M41.79,23.879A20,20,0,0,1,4.943,34.661a20,20,0,0,0,31.909-23.94A19.921,19.921,0,0,1,41.79,23.879" transform="translate(-1.79 -3.882)" fill="#d2d2d2"/>
      <path id="패스_100" data-name="패스 100" d="M19.212,40.719c.008-.006.023-.014.031-.02a12.009,12.009,0,0,1,6.89-2.118A12.522,12.522,0,0,1,33.016,40.7c3.354,2.2,2.295,3.727,1.225,3.176-.014-.007-.015,0-.023-.006a17.218,17.218,0,0,0-8.085-2.321,18.473,18.473,0,0,0-8.085,2.321.18.18,0,0,0-.039.02c-1,.537-1.859-.86,1.2-3.17" transform="translate(-6.186 -13.969)" fill="#4b4b4b"/>
      <path id="패스_101" data-name="패스 101" d="M45.437,21.581c0,2.122-1.243,3.843-2.777,3.843s-2.776-1.721-2.776-3.843,1.243-3.843,2.776-3.843,2.777,1.721,2.777,3.843" transform="translate(-14.44 -6.422)" fill="#4b4b4b"/>
      <path id="패스_102" data-name="패스 102" d="M45.573,22.2c0,2.126-1.242,3.846-2.776,3.846a2.9,2.9,0,0,1-2.537-2.293,2.439,2.439,0,0,0,1.941,1.1c1.534,0,2.776-1.719,2.776-3.845a4.862,4.862,0,0,0-.245-1.558,4.634,4.634,0,0,1,.842,2.751" transform="translate(-14.577 -7.04)" fill="#4b4b4b"/>
      <path id="패스_103" data-name="패스 103" d="M19.666,21.581c0,2.122-1.243,3.843-2.777,3.843s-2.776-1.721-2.776-3.843,1.243-3.843,2.776-3.843,2.777,1.721,2.777,3.843" transform="translate(-5.11 -6.422)" fill="#4b4b4b"/>
      <path id="패스_104" data-name="패스 104" d="M19.8,22.2c0,2.126-1.242,3.846-2.776,3.846a2.9,2.9,0,0,1-2.537-2.293,2.439,2.439,0,0,0,1.94,1.1c1.535,0,2.776-1.719,2.776-3.845a4.862,4.862,0,0,0-.245-1.558A4.634,4.634,0,0,1,19.8,22.2" transform="translate(-5.246 -7.04)" fill="#4b4b4b"/>
      <path id="패스_105" data-name="패스 105" d="M10.888,15.113c-.914.864-1.661.377-1.12-.595a10.752,10.752,0,0,1,4.468-4.438c1.018-.487,1.784-.321,2.149.13s.648,1.423-1.026,2.1a13.571,13.571,0,0,0-4.471,2.8" transform="translate(-3.471 -3.543)" fill="#4b4b4b"/>
      <path id="패스_106" data-name="패스 106" d="M47.8,15.113c.914.864,1.661.377,1.12-.595a10.75,10.75,0,0,0-4.469-4.438c-1.017-.487-1.784-.321-2.148.13s-.648,1.423,1.026,2.1a13.564,13.564,0,0,1,4.471,2.8" transform="translate(-15.214 -3.543)" fill="#4b4b4b"/>
    </g>
  </g>
</svg>
