<svg xmlns="http://www.w3.org/2000/svg" xmlns:xlink="http://www.w3.org/1999/xlink" width="40" height="39.999" viewBox="0 0 40 39.999">
  <defs>
    <clipPath id="clip-path">
      <rect id="사각형_9294" data-name="사각형 9294" width="40" height="39.999" fill="none"/>
    </clipPath>
  </defs>
  <g id="그룹_109" data-name="그룹 109" transform="translate(0 0)">
    <g id="그룹_108" data-name="그룹 108" transform="translate(0 0)" clip-path="url(#clip-path)">
      <path id="패스_179" data-name="패스 179" d="M40,20A20,20,0,1,1,20,0,20,20,0,0,1,40,20" transform="translate(0 0)" fill="#e2e2e2"/>
      <path id="패스_180" data-name="패스 180" d="M41.79,23.879A20,20,0,0,1,4.943,34.661a20,20,0,0,0,31.91-23.94A19.924,19.924,0,0,1,41.79,23.879" transform="translate(-1.79 -3.882)" fill="#d2d2d2"/>
      <path id="패스_181" data-name="패스 181" d="M21.374,23.4a4.687,4.687,0,1,1-4.686-4.8,4.746,4.746,0,0,1,4.686,4.8" transform="translate(-4.345 -6.733)" fill="#dfeef0"/>
      <path id="패스_182" data-name="패스 182" d="M21.374,21.955a4.686,4.686,0,1,1-4.686-4.686,4.686,4.686,0,0,1,4.686,4.686" transform="translate(-4.345 -6.253)" fill="#fff"/>
      <path id="패스_183" data-name="패스 183" d="M20.183,23.51a1.94,1.94,0,1,1-1.94-1.941,1.86,1.86,0,0,1,.68.126,1.024,1.024,0,0,0-.352.776A1.04,1.04,0,0,0,19.61,23.51a1,1,0,0,0,.561-.167.748.748,0,0,1,.012.167" transform="translate(-5.902 -7.81)" fill="#4b4b4b"/>
      <path id="패스_184" data-name="패스 184" d="M12.818,14.572c-1.238.267-1.243-.561-.253-1.181,2.365-1.483,7.588-1.241,8.5.577.287.572-.045,1.391-.836,1.125a12.6,12.6,0,0,0-7.41-.52" transform="translate(-4.292 -4.498)" fill="#4b4b4b"/>
      <path id="패스_185" data-name="패스 185" d="M41.34,13.436c1.213-.35.865-1.032-.279-1.086-2.732-.13-7.266,2.471-7.3,4.383a.7.7,0,0,0,1.222.539,13.577,13.577,0,0,1,6.358-3.835" transform="translate(-12.223 -4.47)" fill="#4b4b4b"/>
      <path id="패스_186" data-name="패스 186" d="M40.366,18.222a5.527,5.527,0,0,0-3.819,2.3c-1.641,2.35-.429,3.888-.049,3.213a6.45,6.45,0,0,1,4.315-3.4c2.433-.422,4.186.142,4.832,1.167.28.443.609.17-.077-.925a5.333,5.333,0,0,0-5.2-2.358" transform="translate(-12.929 -6.579)" fill="#4b4b4b"/>
      <path id="패스_187" data-name="패스 187" d="M35.088,39.642A8.62,8.62,0,0,1,31.8,46.43c-.006.006-.018.011-.024.018a8.657,8.657,0,0,1-10.668,0c-.006-.006-.006-.006-.012-.006a8.633,8.633,0,0,1-3.3-6.8Z" transform="translate(-6.446 -14.353)" fill="#4b4b4b"/>
      <path id="패스_188" data-name="패스 188" d="M33.656,48.951a8.638,8.638,0,0,1-10.666,0c.6-2.148,3.655-3.382,5.333-1.349,1.577-2.014,4.731-.8,5.333,1.349" transform="translate(-8.324 -16.86)" fill="#fff"/>
    </g>
  </g>
</svg>
