<svg id="그룹_187" data-name="그룹 187" xmlns="http://www.w3.org/2000/svg" xmlns:xlink="http://www.w3.org/1999/xlink" width="26" height="26" viewBox="0 0 26 26">
  <defs>
    <clipPath id="clip-path">
      <rect id="사각형_48" data-name="사각형 48" width="26" height="26" fill="none"/>
    </clipPath>
  </defs>
  <g id="그룹_63" data-name="그룹 63" transform="translate(0 0)" clip-path="url(#clip-path)">
    <path id="패스_115" data-name="패스 115" d="M26,13A13,13,0,1,1,13,0,13,13,0,0,1,26,13" transform="translate(0 0)" fill="#e2e2e2"/>
    <path id="패스_116" data-name="패스 116" d="M28.893,19.274A13,13,0,0,1,4.942,26.282,13,13,0,0,0,25.684,10.721a12.951,12.951,0,0,1,3.209,8.553" transform="translate(-2.893 -6.275)" fill="#d2d2d2"/>
    <path id="패스_117" data-name="패스 117" d="M24.1,39.971l.011-.013a3.284,3.284,0,0,1,2.522-1.377,3.417,3.417,0,0,1,2.519,1.377c1.227,1.431.84,2.423.449,2.065,0,0-.006,0-.008,0a4.551,4.551,0,0,0-2.959-1.509,4.871,4.871,0,0,0-2.959,1.509.055.055,0,0,0-.014.013c-.367.349-.68-.559.44-2.06" transform="translate(-13.649 -22.583)" fill="#4b4b4b"/>
    <path id="패스_118" data-name="패스 118" d="M43.494,20.236c0,1.38-.808,2.5-1.805,2.5s-1.8-1.118-1.8-2.5.808-2.5,1.8-2.5,1.805,1.118,1.805,2.5" transform="translate(-23.345 -10.383)" fill="#4b4b4b"/>
    <path id="패스_119" data-name="패스 119" d="M43.714,21.232c0,1.382-.807,2.5-1.8,2.5a1.885,1.885,0,0,1-1.649-1.49,1.584,1.584,0,0,0,1.261.714c1,0,1.8-1.118,1.8-2.5a3.162,3.162,0,0,0-.159-1.013,3.013,3.013,0,0,1,.547,1.789" transform="translate(-23.566 -11.381)" fill="#4b4b4b"/>
    <path id="패스_120" data-name="패스 120" d="M17.723,20.236c0,1.38-.808,2.5-1.805,2.5s-1.8-1.118-1.8-2.5.808-2.5,1.8-2.5,1.805,1.118,1.805,2.5" transform="translate(-8.261 -10.383)" fill="#4b4b4b"/>
    <path id="패스_121" data-name="패스 121" d="M17.943,21.232c0,1.382-.807,2.5-1.8,2.5a1.886,1.886,0,0,1-1.649-1.49,1.584,1.584,0,0,0,1.261.714c1,0,1.8-1.118,1.8-2.5a3.174,3.174,0,0,0-.159-1.013,3.015,3.015,0,0,1,.547,1.789" transform="translate(-8.481 -11.381)" fill="#4b4b4b"/>
    <path id="패스_122" data-name="패스 122" d="M45.646,11.556c.755.312.666.885-.055.822a6.994,6.994,0,0,1-3.821-1.47c-.559-.474-.665-.973-.494-1.309s.672-.763,1.521.049a8.818,8.818,0,0,0,2.848,1.907" transform="translate(-24.117 -5.375)" fill="#4b4b4b"/>
    <path id="패스_123" data-name="패스 123" d="M10.039,11.556c-.755.312-.666.885.055.822a6.994,6.994,0,0,0,3.821-1.47c.559-.474.665-.973.494-1.309s-.672-.763-1.521.049a8.818,8.818,0,0,1-2.848,1.907" transform="translate(-5.567 -5.375)" fill="#4b4b4b"/>
    <path id="패스_124" data-name="패스 124" d="M46.586,39.559a1.9,1.9,0,0,1-1.335-.485,1.923,1.923,0,0,1-.3-.341,2.433,2.433,0,0,1-.233-.419c-.031-.074-.062-.151-.09-.229a4.294,4.294,0,0,1-.194-1.626,3.869,3.869,0,0,1,.054-.551c0-.027.008-.051.012-.078.012-.085.027-.175.047-.26.007-.054.019-.1.031-.159a13.245,13.245,0,0,1,2.006-4.145,14.773,14.773,0,0,1,1.556,2.759,8.4,8.4,0,0,1,.458,1.385c.477,2.072-.109,4.148-2.014,4.148" transform="translate(-26.005 -18.301)" fill="#00dffa"/>
    <path id="패스_125" data-name="패스 125" d="M46.588,43.454a1.9,1.9,0,0,1-1.335-.485,2.081,2.081,0,0,1-.3-.341,2.433,2.433,0,0,1-.233-.419c-.031-.074-.062-.151-.09-.229a4.379,4.379,0,0,1-.194-1.626,5.493,5.493,0,0,1,.054-.551c0-.027.008-.051.012-.078.012-.085.027-.175.047-.26-.093,1.409.543,2.619,2.037,2.619s1.941-2.127,1.556-4.164a8.4,8.4,0,0,1,.458,1.385c.477,2.072-.109,4.148-2.014,4.148" transform="translate(-26.007 -22.196)" fill="#00bed6"/>
  </g>
</svg>
