<svg xmlns="http://www.w3.org/2000/svg" xmlns:xlink="http://www.w3.org/1999/xlink" width="40" height="39.999" viewBox="0 0 40 39.999">
  <defs>
    <clipPath id="clip-path">
      <rect id="사각형_41" data-name="사각형 41" width="40" height="39.999" fill="none"/>
    </clipPath>
  </defs>
  <g id="그룹_50" data-name="그룹 50" transform="translate(-0.001)">
    <g id="그룹_49" data-name="그룹 49" transform="translate(0.001 0)" clip-path="url(#clip-path)">
      <path id="패스_50" data-name="패스 50" d="M40,20A20,20,0,1,1,20,0,20,20,0,0,1,40,20" transform="translate(0 0)" fill="#e2e2e2"/>
      <path id="패스_51" data-name="패스 51" d="M41.789,23.879A20,20,0,0,1,4.942,34.661a20,20,0,0,0,31.91-23.94,19.924,19.924,0,0,1,4.937,13.158" transform="translate(-1.789 -3.882)" fill="#d2d2d2"/>
      <path id="패스_52" data-name="패스 52" d="M11.422,11.122a.2.2,0,0,1-.051-.38c2.9-1.146,7.609-1.088,10.4,1.417a2.289,2.289,0,0,1,.742,2.7,1.76,1.76,0,0,1-2.8.315c-2.542-2.963-5.035-3.5-8.293-4.048" transform="translate(-4.072 -3.63)" fill="#4b4b4b"/>
      <path id="패스_53" data-name="패스 53" d="M44.782,11.122a.2.2,0,0,0,.05-.38c-2.9-1.146-7.609-1.088-10.4,1.417a2.29,2.29,0,0,0-.743,2.7,1.76,1.76,0,0,0,2.8.315c2.542-2.963,5.035-3.5,8.294-4.048" transform="translate(-12.131 -3.63)" fill="#4b4b4b"/>
      <path id="패스_54" data-name="패스 54" d="M45.437,20.423c0,2.122-1.243,3.842-2.777,3.842s-2.776-1.72-2.776-3.842,1.243-3.843,2.776-3.843,2.777,1.721,2.777,3.843" transform="translate(-14.44 -6.003)" fill="#4b4b4b"/>
      <path id="패스_55" data-name="패스 55" d="M45.573,21.037c0,2.126-1.242,3.845-2.776,3.845a2.9,2.9,0,0,1-2.537-2.293,2.437,2.437,0,0,0,1.94,1.1c1.535,0,2.776-1.719,2.776-3.845a4.862,4.862,0,0,0-.245-1.558,4.635,4.635,0,0,1,.842,2.752" transform="translate(-14.577 -6.62)" fill="#4b4b4b"/>
      <path id="패스_56" data-name="패스 56" d="M19.666,20.423c0,2.122-1.243,3.842-2.777,3.842s-2.776-1.72-2.776-3.842,1.243-3.843,2.776-3.843,2.777,1.721,2.777,3.843" transform="translate(-5.11 -6.003)" fill="#4b4b4b"/>
      <path id="패스_57" data-name="패스 57" d="M19.8,21.037c0,2.126-1.242,3.845-2.776,3.845a2.9,2.9,0,0,1-2.537-2.293,2.437,2.437,0,0,0,1.941,1.1c1.534,0,2.776-1.719,2.776-3.845a4.88,4.88,0,0,0-.244-1.558,4.639,4.639,0,0,1,.841,2.752" transform="translate(-5.246 -6.62)" fill="#4b4b4b"/>
      <path id="패스_58" data-name="패스 58" d="M19.212,39.941c.008-.006.023-.013.031-.02a12.009,12.009,0,0,1,6.89-2.118,12.522,12.522,0,0,1,6.882,2.118c3.354,2.2,2.295,3.727,1.225,3.177-.014-.008-.015,0-.023-.007a17.218,17.218,0,0,0-8.085-2.321,18.473,18.473,0,0,0-8.085,2.321.213.213,0,0,0-.039.02c-1,.537-1.859-.86,1.2-3.17" transform="translate(-6.186 -13.687)" fill="#4b4b4b"/>
    </g>
  </g>
</svg>
