<svg xmlns="http://www.w3.org/2000/svg" xmlns:xlink="http://www.w3.org/1999/xlink" width="40" height="39.999" viewBox="0 0 40 39.999">
  <defs>
    <clipPath id="clip-path">
      <rect id="사각형_9292" data-name="사각형 9292" width="40" height="39.999" fill="none"/>
    </clipPath>
  </defs>
  <g id="그룹_105" data-name="그룹 105" transform="translate(0 0)">
    <g id="그룹_104" data-name="그룹 104" transform="translate(0 0)" clip-path="url(#clip-path)">
      <path id="패스_156" data-name="패스 156" d="M40,20A20,20,0,1,1,20,0,20,20,0,0,1,40,20" transform="translate(0 0)" fill="#e2e2e2"/>
      <path id="패스_157" data-name="패스 157" d="M41.79,23.879A20,20,0,0,1,4.943,34.661a20,20,0,0,0,31.91-23.94A19.924,19.924,0,0,1,41.79,23.879" transform="translate(-1.79 -3.882)" fill="#d2d2d2"/>
      <path id="패스_158" data-name="패스 158" d="M35.034,42.355c0,1.754-1.71,1.065-8.516,1.065S18,44.109,18,42.355c0-1.246,3.483-1.065,8.516-1.065s8.516-.181,8.516,1.065" transform="translate(-6.517 -14.947)" fill="#4b4b4b"/>
      <path id="패스_159" data-name="패스 159" d="M21.306,21.955a4.686,4.686,0,1,1-4.686-4.686,4.686,4.686,0,0,1,4.686,4.686" transform="translate(-4.321 -6.253)" fill="#fff"/>
      <path id="패스_160" data-name="패스 160" d="M20.119,23.513a1.94,1.94,0,1,1-1.941-1.941,1.861,1.861,0,0,1,.681.126,1.024,1.024,0,0,0-.352.776,1.04,1.04,0,0,0,1.039,1.039,1,1,0,0,0,.561-.167.748.748,0,0,1,.012.167" transform="translate(-5.879 -7.811)" fill="#4b4b4b"/>
      <path id="패스_161" data-name="패스 161" d="M21.306,24.442a4.683,4.683,0,1,1-9.367,0c0-.1.006-.2.011-.3a4.525,4.525,0,0,0,4.668,4.2,4.527,4.527,0,0,0,4.674-4.2c.006.1.013.2.013.3" transform="translate(-4.323 -8.741)" fill="#dfeef0"/>
      <path id="패스_162" data-name="패스 162" d="M45.45,21.955a4.686,4.686,0,1,1-4.686-4.686,4.686,4.686,0,0,1,4.686,4.686" transform="translate(-13.062 -6.253)" fill="#fff"/>
      <path id="패스_163" data-name="패스 163" d="M44.263,23.513a1.94,1.94,0,1,1-1.94-1.941A1.857,1.857,0,0,1,43,21.7a1.026,1.026,0,0,0-.352.776,1.04,1.04,0,0,0,1.039,1.039,1,1,0,0,0,.561-.167.748.748,0,0,1,.012.167" transform="translate(-14.621 -7.811)" fill="#4b4b4b"/>
      <path id="패스_164" data-name="패스 164" d="M45.449,24.442a4.683,4.683,0,1,1-9.367,0c0-.1.006-.2.011-.3a4.7,4.7,0,0,0,9.343,0c.006.1.012.2.012.3" transform="translate(-13.064 -8.741)" fill="#dfeef0"/>
      <path id="패스_165" data-name="패스 165" d="M45.6,14.023c.947.348,1.3-.892.545-1.555a6.972,6.972,0,0,0-5.817-1.616c-1.618.39-1.284,2.279,0,2.195a12.05,12.05,0,0,1,5.273.976" transform="translate(-14.205 -3.882)" fill="#4b4b4b"/>
      <path id="패스_166" data-name="패스 166" d="M12.954,14.023c-.947.348-1.3-.892-.545-1.555a6.972,6.972,0,0,1,5.817-1.616c1.618.39,1.284,2.279,0,2.195a12.05,12.05,0,0,0-5.273.976" transform="translate(-4.346 -3.882)" fill="#4b4b4b"/>
    </g>
  </g>
</svg>
