<svg id="그룹_54" data-name="그룹 54" xmlns="http://www.w3.org/2000/svg" xmlns:xlink="http://www.w3.org/1999/xlink" width="40" height="39.999" viewBox="0 0 40 39.999">
  <defs>
    <clipPath id="clip-path">
      <rect id="사각형_43" data-name="사각형 43" width="40" height="39.999" fill="none"/>
    </clipPath>
  </defs>
  <g id="그룹_53" data-name="그룹 53" transform="translate(0 0)" clip-path="url(#clip-path)">
    <path id="패스_68" data-name="패스 68" d="M40,20A20,20,0,1,1,20,0,20,20,0,0,1,40,20" transform="translate(0 0)" fill="#e2e2e2"/>
    <path id="패스_69" data-name="패스 69" d="M41.79,23.879A20,20,0,0,1,4.943,34.661a20,20,0,0,0,31.909-23.94A19.921,19.921,0,0,1,41.79,23.879" transform="translate(-1.79 -3.882)" fill="#d2d2d2"/>
    <path id="패스_70" data-name="패스 70" d="M49.588,14.1c1.247.512,1.086,1.483-.11,1.393a11.191,11.191,0,0,1-6.312-2.4c-.918-.79-1.082-1.632-.79-2.2s1.132-1.306,2.524.05A14.109,14.109,0,0,0,49.588,14.1" transform="translate(-15.295 -3.681)" fill="#4b4b4b"/>
    <path id="패스_71" data-name="패스 71" d="M8.457,14.1c-1.247.512-1.086,1.483.109,1.393a11.191,11.191,0,0,0,6.312-2.4c.918-.79,1.082-1.632.791-2.2s-1.132-1.306-2.524.05A14.107,14.107,0,0,1,8.457,14.1" transform="translate(-2.749 -3.681)" fill="#4b4b4b"/>
    <path id="패스_72" data-name="패스 72" d="M14.913,24.744a5.53,5.53,0,0,0,4.145-1.64c2.005-2.048,1.062-3.168.576-2.564A5.8,5.8,0,0,1,15.016,23a5.114,5.114,0,0,1-4.266-2.471c-.316-.418-1.077-.154-.581,1.039a5.332,5.332,0,0,0,4.744,3.18" transform="translate(-3.623 -7.364)" fill="#4b4b4b"/>
    <path id="패스_73" data-name="패스 73" d="M41.955,24.744A5.528,5.528,0,0,1,37.81,23.1c-2.006-2.048-1.062-3.168-.577-2.564A5.8,5.8,0,0,0,41.852,23a5.114,5.114,0,0,0,4.267-2.471c.316-.418,1.077-.154.581,1.039a5.332,5.332,0,0,1-4.744,3.18" transform="translate(-13.245 -7.364)" fill="#4b4b4b"/>
    <path id="패스_74" data-name="패스 74" d="M22.242,40.719c.006-.006.017-.013.023-.02a7.555,7.555,0,0,1,5.17-2.118A7.869,7.869,0,0,1,32.6,40.7c2.517,2.2,1.722,3.727.92,3.176-.011-.007-.012,0-.018-.006a10.672,10.672,0,0,0-6.066-2.321c-2.284,0-4.372,1.2-6.067,2.321a.146.146,0,0,0-.029.02c-.752.537-1.4-.86.9-3.17" transform="translate(-7.475 -13.969)" fill="#4b4b4b"/>
  </g>
</svg>
