<svg xmlns="http://www.w3.org/2000/svg" xmlns:xlink="http://www.w3.org/1999/xlink" width="26" height="26" viewBox="0 0 26 26">
  <defs>
    <clipPath id="clip-path">
      <rect id="사각형_49" data-name="사각형 49" width="26" height="26" fill="none"/>
    </clipPath>
  </defs>
  <g id="그룹_66" data-name="그룹 66" transform="translate(0 0)">
    <g id="그룹_65" data-name="그룹 65" transform="translate(0 0)" clip-path="url(#clip-path)">
      <path id="패스_126" data-name="패스 126" d="M26,13A13,13,0,1,1,13,0,13,13,0,0,1,26,13" transform="translate(0 0)" fill="#e2e2e2"/>
      <path id="패스_127" data-name="패스 127" d="M28.893,19.274a13,13,0,0,1-23.95,7.008A13,13,0,0,0,25.684,10.721a12.95,12.95,0,0,1,3.209,8.553" transform="translate(-2.893 -6.276)" fill="#d2d2d2"/>
      <path id="패스_128" data-name="패스 128" d="M43.494,20.236c0,1.38-.808,2.5-1.805,2.5s-1.8-1.118-1.8-2.5.808-2.5,1.8-2.5,1.805,1.118,1.805,2.5" transform="translate(-23.346 -10.383)" fill="#4b4b4b"/>
      <path id="패스_129" data-name="패스 129" d="M43.714,21.232c0,1.382-.807,2.5-1.8,2.5a1.885,1.885,0,0,1-1.649-1.49,1.584,1.584,0,0,0,1.261.714c1,0,1.8-1.118,1.8-2.5a3.16,3.16,0,0,0-.159-1.013,3.013,3.013,0,0,1,.547,1.789" transform="translate(-23.566 -11.381)" fill="#4b4b4b"/>
      <path id="패스_130" data-name="패스 130" d="M17.723,20.236c0,1.38-.808,2.5-1.805,2.5s-1.8-1.118-1.8-2.5.808-2.5,1.8-2.5,1.805,1.118,1.805,2.5" transform="translate(-8.261 -10.383)" fill="#4b4b4b"/>
      <path id="패스_131" data-name="패스 131" d="M17.943,21.232c0,1.382-.807,2.5-1.8,2.5a1.885,1.885,0,0,1-1.649-1.49,1.584,1.584,0,0,0,1.261.714c1,0,1.8-1.118,1.8-2.5a3.16,3.16,0,0,0-.159-1.013,3.013,3.013,0,0,1,.547,1.789" transform="translate(-8.481 -11.381)" fill="#4b4b4b"/>
      <path id="패스_132" data-name="패스 132" d="M28.753,37.873a5.42,5.42,0,0,1-2.41,4.179,6.959,6.959,0,0,1-7.8,0,5.421,5.421,0,0,1-2.415-4.187,5.886,5.886,0,0,0,2.087,2.247,8.064,8.064,0,0,0,8.449,0,5.922,5.922,0,0,0,2.087-2.239" transform="translate(-9.442 -22.164)" fill="#4b4b4b"/>
    </g>
  </g>
</svg>
