<svg xmlns="http://www.w3.org/2000/svg" xmlns:xlink="http://www.w3.org/1999/xlink" width="40" height="39.999" viewBox="0 0 40 39.999">
  <defs>
    <clipPath id="clip-path">
      <rect id="사각형_49" data-name="사각형 49" width="40" height="39.999" fill="none"/>
    </clipPath>
  </defs>
  <g id="그룹_65" data-name="그룹 65" clip-path="url(#clip-path)">
    <path id="패스_126" data-name="패스 126" d="M40,20A20,20,0,1,1,20,0,20,20,0,0,1,40,20" transform="translate(0 0)" fill="#e2e2e2"/>
    <path id="패스_127" data-name="패스 127" d="M41.79,23.879A20,20,0,0,1,4.943,34.661a20,20,0,0,0,31.91-23.94A19.924,19.924,0,0,1,41.79,23.879" transform="translate(-1.79 -3.882)" fill="#d2d2d2"/>
    <path id="패스_128" data-name="패스 128" d="M45.437,21.581c0,2.122-1.243,3.843-2.777,3.843s-2.776-1.721-2.776-3.843,1.243-3.842,2.776-3.842,2.777,1.72,2.777,3.842" transform="translate(-14.44 -6.423)" fill="#4b4b4b"/>
    <path id="패스_129" data-name="패스 129" d="M45.573,22.2c0,2.126-1.242,3.845-2.776,3.845a2.9,2.9,0,0,1-2.537-2.293,2.437,2.437,0,0,0,1.941,1.1c1.534,0,2.776-1.719,2.776-3.845a4.862,4.862,0,0,0-.245-1.558,4.635,4.635,0,0,1,.842,2.752" transform="translate(-14.577 -7.04)" fill="#4b4b4b"/>
    <path id="패스_130" data-name="패스 130" d="M19.666,21.581c0,2.122-1.243,3.843-2.777,3.843s-2.776-1.721-2.776-3.843,1.243-3.842,2.776-3.842,2.777,1.72,2.777,3.842" transform="translate(-5.11 -6.423)" fill="#4b4b4b"/>
    <path id="패스_131" data-name="패스 131" d="M19.8,22.2c0,2.126-1.242,3.845-2.776,3.845a2.9,2.9,0,0,1-2.537-2.293,2.437,2.437,0,0,0,1.94,1.1c1.535,0,2.776-1.719,2.776-3.845a4.862,4.862,0,0,0-.245-1.558A4.635,4.635,0,0,1,19.8,22.2" transform="translate(-5.246 -7.04)" fill="#4b4b4b"/>
    <path id="패스_132" data-name="패스 132" d="M35.551,37.877a8.338,8.338,0,0,1-3.708,6.43,10.706,10.706,0,0,1-12,0,8.34,8.34,0,0,1-3.715-6.442,9.055,9.055,0,0,0,3.211,3.457,12.407,12.407,0,0,0,13,0,9.111,9.111,0,0,0,3.211-3.445" transform="translate(-5.84 -13.71)" fill="#4b4b4b"/>
  </g>
</svg>
