<svg xmlns="http://www.w3.org/2000/svg" xmlns:xlink="http://www.w3.org/1999/xlink" width="40" height="40" viewBox="0 0 40 40">
  <defs>
    <clipPath id="clip-path">
      <rect id="사각형_22" data-name="사각형 22" width="23" height="24.038" fill="rgba(0,0,0,0)"/>
    </clipPath>
  </defs>
  <g id="그룹_91" data-name="그룹 91" transform="translate(-232 -768)">
    <rect id="사각형_9279" data-name="사각형 9279" width="40" height="40" transform="translate(232 768)" fill="none"/>
    <g id="그룹_29" data-name="그룹 29" transform="translate(241 776)">
      <g id="그룹_28" data-name="그룹 28" transform="translate(0 0.001)" clip-path="url(#clip-path)">
        <path id="패스_23" data-name="패스 23" d="M22.437,9.982c0-4.96-4.8-8.982-10.719-8.982S1,5.021,1,9.982c0,4.907,4.7,8.893,10.529,8.978l-.835,4.517,4.627-5.034c4.147-1.241,7.116-4.56,7.116-8.46" transform="translate(-0.219 -0.219)" fill="none"/>
        <path id="패스_24" data-name="패스 24" d="M22.437,9.982c0-4.96-4.8-8.982-10.719-8.982S1,5.021,1,9.982c0,4.907,4.7,8.893,10.529,8.978l-.835,4.517,4.627-5.034C19.469,17.2,22.437,13.882,22.437,9.982Z" transform="translate(-0.219 -0.219)" fill="none" stroke="#666" stroke-linejoin="round" stroke-width="1"/>
      </g>
    </g>
  </g>
</svg>
