<svg xmlns="http://www.w3.org/2000/svg" xmlns:xlink="http://www.w3.org/1999/xlink" width="26.606" height="24" viewBox="0 0 26.606 24">
  <defs>
    <clipPath id="clip-path">
      <rect id="사각형_18" data-name="사각형 18" width="26.606" height="24" fill="none" stroke="#707070" stroke-width="1.5"/>
    </clipPath>
  </defs>
  <g id="그룹_19" data-name="그룹 19" transform="translate(0 0)">
    <g id="그룹_18" data-name="그룹 18" transform="translate(0 0)" clip-path="url(#clip-path)">
      <path id="패스_10" data-name="패스 10" d="M21.052,1.3C18.261.047,15.18,2.965,13.241,5.274,11.3,2.965,8.219.047,5.429,1.3,1.806,2.931.053,7.522,1.515,11.56S13.241,22.875,13.241,22.875,23.5,15.6,24.966,11.56,24.675,2.931,21.052,1.3" transform="translate(0.062 0.062)" fill="#fff"/>
      <path id="패스_11" data-name="패스 11" d="M21.052,1.3C18.261.047,15.18,2.965,13.241,5.274,11.3,2.965,8.219.047,5.429,1.3,1.806,2.931.053,7.522,1.515,11.56S13.241,22.875,13.241,22.875,23.5,15.6,24.966,11.56,24.675,2.931,21.052,1.3Z" transform="translate(0.062 0.062)" fill="#ff2a2a"/>
    </g>
  </g>
</svg>
