<svg xmlns="http://www.w3.org/2000/svg" xmlns:xlink="http://www.w3.org/1999/xlink" width="40" height="40" viewBox="0 0 40 40">
  <defs>
    <clipPath id="clip-path">
      <rect id="사각형_21" data-name="사각형 21" width="20.9" height="24.645" transform="translate(0 0)" fill="none"/>
    </clipPath>
  </defs>
  <g id="그룹_88" data-name="그룹 88" transform="translate(-304 -769)">
    <rect id="사각형_9276" data-name="사각형 9276" width="40" height="40" rx="20" transform="translate(304 769)" fill="#7e63ba"/>
    <g id="그룹_27" data-name="그룹 27" transform="translate(314 777)">
      <g id="그룹_26" data-name="그룹 26" clip-path="url(#clip-path)">
        <path id="패스_20" data-name="패스 20" d="M15.492,6.044A5.044,5.044,0,1,1,10.448,1a5.044,5.044,0,0,1,5.044,5.044" fill="none"/>
        <circle id="타원_1" data-name="타원 1" cx="5.044" cy="5.044" r="5.044" transform="translate(5.404 1)" fill="none" stroke="#fff" stroke-linejoin="round" stroke-width="1"/>
        <path id="패스_21" data-name="패스 21" d="M19.9,22.415c0,.41-.02.82-.05,1.23H1.04c-.02-.41-.04-.82-.04-1.23,0-.17,0-.33.01-.5a14.645,14.645,0,0,1,3.75-9.75,1.92,1.92,0,0,1,.14-.15.55.55,0,0,0,.09.07,8.056,8.056,0,0,0,5.24,2.11,2.425,2.425,0,0,0,.44,0,8.077,8.077,0,0,0,5.24-2.11.55.55,0,0,0,.09-.07,1.92,1.92,0,0,1,.14.15,14.645,14.645,0,0,1,3.75,9.75c.01.17.01.33.01.5" fill="none"/>
        <path id="패스_22" data-name="패스 22" d="M19.9,22.415c0,.41-.02.82-.05,1.23H1.04c-.02-.41-.04-.82-.04-1.23,0-.17,0-.33.01-.5a14.645,14.645,0,0,1,3.75-9.75,1.92,1.92,0,0,1,.14-.15.55.55,0,0,0,.09.07,8.056,8.056,0,0,0,5.24,2.11,2.425,2.425,0,0,0,.44,0,8.077,8.077,0,0,0,5.24-2.11.55.55,0,0,0,.09-.07,1.92,1.92,0,0,1,.14.15,14.645,14.645,0,0,1,3.75,9.75C19.9,22.085,19.9,22.245,19.9,22.415Z" fill="none" stroke="#fff" stroke-linejoin="round" stroke-width="1"/>
      </g>
    </g>
  </g>
</svg>
