<svg xmlns="http://www.w3.org/2000/svg" xmlns:xlink="http://www.w3.org/1999/xlink" width="40" height="40" viewBox="0 0 40 40">
  <defs>
    <clipPath id="clip-path">
      <rect id="사각형_9261" data-name="사각형 9261" width="17.265" height="30" fill="none"/>
    </clipPath>
  </defs>
  <g id="그룹_86" data-name="그룹 86" transform="translate(-16 -769)">
    <rect id="사각형_9272" data-name="사각형 9272" width="40" height="40" rx="20" transform="translate(16 769)" fill="#7e63ba"/>
    <g id="그룹_77" data-name="그룹 77" transform="translate(27 774)">
      <g id="마스크_그룹_76" data-name="마스크 그룹 76" transform="translate(0 0)" clip-path="url(#clip-path)">
        <path id="패스_141" data-name="패스 141" d="M2.866,31.758H14.6a1.866,1.866,0,0,0,1.866-1.866V26.736H1v3.156a1.866,1.866,0,0,0,1.866,1.866" transform="translate(-0.099 -2.659)" fill="none"/>
        <path id="패스_142" data-name="패스 142" d="M2.866,31.758H14.6a1.866,1.866,0,0,0,1.866-1.866V26.736H1v3.156A1.866,1.866,0,0,0,2.866,31.758Z" transform="translate(-0.099 -4.659)" fill="none" stroke="#fff" stroke-linejoin="round" stroke-width="1"/>
        <rect id="사각형_9259" data-name="사각형 9259" width="15.464" height="18.715" transform="translate(0.901 5.362)" fill="none"/>
        <rect id="사각형_9260" data-name="사각형 9260" width="15.464" height="14.715" transform="translate(0.901 7.362)" fill="none" stroke="#fff" stroke-linejoin="round" stroke-width="1"/>
        <path id="패스_143" data-name="패스 143" d="M14.6,1H2.866A1.866,1.866,0,0,0,1,2.866v2.6H16.464v-2.6A1.866,1.866,0,0,0,14.6,1" transform="translate(-0.099 -0.099)" fill="none"/>
        <path id="패스_144" data-name="패스 144" d="M14.6,1H2.866A1.866,1.866,0,0,0,1,2.866v2.6H16.464v-2.6A1.866,1.866,0,0,0,14.6,1Z" transform="translate(-0.099 1.901)" fill="none" stroke="#fff" stroke-linejoin="round" stroke-width="1"/>
        <line id="선_8" data-name="선 8" y2="6.862" transform="translate(8.633 11.569)" fill="#fff"/>
        <line id="선_10" data-name="선 10" x2="6.862" transform="translate(5.202 15)" fill="#fff"/>
        <g id="그룹_87" data-name="그룹 87">
          <line id="선_9" data-name="선 9" y2="4.86" transform="translate(8.633 12.568)" fill="none" stroke="#fff" stroke-linecap="round" stroke-linejoin="round" stroke-width="1"/>
          <path id="패스_146" data-name="패스 146" d="M1,0H5.862" transform="translate(5.201 15)" fill="none" stroke="#fff" stroke-linecap="round" stroke-width="1"/>
        </g>
      </g>
    </g>
  </g>
</svg>
