<svg xmlns="http://www.w3.org/2000/svg" xmlns:xlink="http://www.w3.org/1999/xlink" width="32" height="32" viewBox="0 0 32 32">
  <defs>
    <clipPath id="clip-path">
      <rect id="사각형_9282" data-name="사각형 9282" width="18" height="24.133" fill="none"/>
    </clipPath>
  </defs>
  <g id="그룹_96" data-name="그룹 96" transform="translate(-189 -64)">
    <rect id="사각형_9283" data-name="사각형 9283" width="32" height="32" transform="translate(189 64)" fill="#fff"/>
    <g id="그룹_95" data-name="그룹 95" transform="translate(197 68.999)">
      <g id="그룹_94" data-name="그룹 94" transform="translate(-1 -1)" clip-path="url(#clip-path)">
        <path id="패스_152" data-name="패스 152" d="M13,25.069a2.578,2.578,0,1,1-2.578-2.578A2.578,2.578,0,0,1,13,25.069" transform="translate(-1.33 -5.81)" fill="#fff"/>
        <path id="패스_153" data-name="패스 153" d="M13,25.069a2.578,2.578,0,1,1-2.578-2.578A2.578,2.578,0,0,1,13,25.069Z" transform="translate(-1.33 -5.81)" fill="none" stroke="#666" stroke-linejoin="bevel" stroke-width="1"/>
        <path id="패스_154" data-name="패스 154" d="M13.679,11.142c-.191-.791-.3-1.6-.433-2.4a5.553,5.553,0,0,0-10.959,0c-.131.8-.243,1.609-.434,2.4L0,18.843H15.533Z" transform="translate(1.323 0.416)" fill="#fff"/>
        <path id="패스_155" data-name="패스 155" d="M13.679,11.142c-.191-.791-.3-1.6-.433-2.4a5.553,5.553,0,0,0-10.959,0c-.131.8-.243,1.609-.434,2.4L0,18.843H15.533Z" transform="translate(1.323 0.416)" fill="none" stroke="#666" stroke-linejoin="bevel" stroke-width="1"/>
        <line id="선_20" data-name="선 20" x2="14.008" transform="translate(2.117 15.963)" fill="#fff"/>
        <line id="선_21" data-name="선 21" x2="14.008" transform="translate(2.117 15.963)" fill="none" stroke="#666" stroke-linejoin="bevel" stroke-width="1"/>
        <line id="선_22" data-name="선 22" y1="2.707" transform="translate(9.09 1.8)" fill="#fff"/>
        <line id="선_23" data-name="선 23" y1="2.707" transform="translate(9.09 1.8)" fill="none" stroke="#666" stroke-linejoin="bevel" stroke-width="1"/>
      </g>
    </g>
  </g>
</svg>
