<svg id="그룹_330" data-name="그룹 330" xmlns="http://www.w3.org/2000/svg" xmlns:xlink="http://www.w3.org/1999/xlink" width="133" height="131" viewBox="0 0 133 131">
  <defs>
    <clipPath id="clip-path">
      <rect id="사각형_9433" data-name="사각형 9433" width="133" height="131" fill="none"/>
    </clipPath>
  </defs>
  <g id="그룹_329" data-name="그룹 329" clip-path="url(#clip-path)">
    <path id="패스_282" data-name="패스 282" d="M130.8,59.38a27.308,27.308,0,0,0-.267-3.168A64.7,64.7,0,0,0,81.492,1.762V1.477A1.477,1.477,0,0,0,80.015,0H52.88A1.477,1.477,0,0,0,51.4,1.477v.285A64.7,64.7,0,0,0,2.361,56.212a27.307,27.307,0,0,0-.267,3.168A2.764,2.764,0,0,0,0,62.06v5.156A2.764,2.764,0,0,0,2.094,69.9v1.257A6.989,6.989,0,0,0,9.28,78.139a7.084,7.084,0,0,0,6.793-7.132V58.276a7.089,7.089,0,0,0-6.932-7.142,6.985,6.985,0,0,0-1.7.195A60.567,60.567,0,0,1,51.4,6.051,1.477,1.477,0,0,0,52.88,7.527H80.015a1.477,1.477,0,0,0,1.477-1.477A60.567,60.567,0,0,1,125.45,51.329a6.984,6.984,0,0,0-1.7-.195,7.089,7.089,0,0,0-6.932,7.142V71.008a7.084,7.084,0,0,0,6.793,7.132,6.989,6.989,0,0,0,7.186-6.986V69.9a2.764,2.764,0,0,0,2.094-2.68V62.06a2.764,2.764,0,0,0-2.094-2.68" fill="#fff"/>
    <path id="패스_283" data-name="패스 283" d="M174.088,118.438a45.914,45.914,0,0,0-45.914,45.914,46.787,46.787,0,0,0,10.02,28.441c3.827,4.942,8.554,9.278,12.91,13.749l23.034,23.643V210.266a45.914,45.914,0,0,0-.05-91.828M157.88,168.862a4.509,4.509,0,1,1,4.509-4.509,4.509,4.509,0,0,1-4.509,4.509m16.208,0a4.509,4.509,0,1,1,4.509-4.509,4.509,4.509,0,0,1-4.509,4.509m16.208,0a4.509,4.509,0,1,1,4.509-4.509,4.509,4.509,0,0,1-4.509,4.509" transform="translate(-107.641 -99.465)" fill="#fff"/>
  </g>
</svg>
