<svg xmlns="http://www.w3.org/2000/svg" xmlns:xlink="http://www.w3.org/1999/xlink" width="40" height="39.999" viewBox="0 0 40 39.999">
  <defs>
    <clipPath id="clip-path">
      <rect id="사각형_9293" data-name="사각형 9293" width="40" height="39.999" fill="none"/>
    </clipPath>
  </defs>
  <g id="그룹_107" data-name="그룹 107" transform="translate(0 0)">
    <g id="그룹_106" data-name="그룹 106" transform="translate(0 0)" clip-path="url(#clip-path)">
      <path id="패스_167" data-name="패스 167" d="M40,20A20,20,0,1,1,20,0,20,20,0,0,1,40,20" transform="translate(0 0)" fill="#e2e2e2"/>
      <path id="패스_168" data-name="패스 168" d="M41.79,23.879A20,20,0,0,1,4.943,34.661a20,20,0,0,0,31.91-23.94A19.924,19.924,0,0,1,41.79,23.879" transform="translate(-1.79 -3.882)" fill="#d2d2d2"/>
      <path id="패스_169" data-name="패스 169" d="M33.417,41.6a4.776,4.776,0,1,1-4.776-4.776A4.76,4.76,0,0,1,33.417,41.6" transform="translate(-8.641 -13.333)" fill="#4b4b4b"/>
      <path id="패스_170" data-name="패스 170" d="M33.014,47.656a4.78,4.78,0,0,1-7.69,0,4.779,4.779,0,0,1,7.69,0" transform="translate(-9.169 -16.552)" fill="#fff"/>
      <path id="패스_171" data-name="패스 171" d="M45.45,23.429a4.688,4.688,0,1,1-4.686-4.834,4.762,4.762,0,0,1,4.686,4.834" transform="translate(-13.062 -6.733)" fill="#dfeef0"/>
      <path id="패스_172" data-name="패스 172" d="M45.45,21.955a4.686,4.686,0,1,1-4.686-4.686,4.686,4.686,0,0,1,4.686,4.686" transform="translate(-13.062 -6.253)" fill="#fff"/>
      <path id="패스_173" data-name="패스 173" d="M44.263,23.513a1.94,1.94,0,1,1-1.941-1.94A1.86,1.86,0,0,1,43,21.7a1.024,1.024,0,0,0-.352.776,1.04,1.04,0,0,0,1.039,1.039,1,1,0,0,0,.561-.167.751.751,0,0,1,.012.167" transform="translate(-14.621 -7.811)" fill="#4b4b4b"/>
      <path id="패스_174" data-name="패스 174" d="M21.306,23.429a4.688,4.688,0,1,1-4.686-4.834,4.762,4.762,0,0,1,4.686,4.834" transform="translate(-4.321 -6.733)" fill="#dfeef0"/>
      <path id="패스_175" data-name="패스 175" d="M21.306,21.955a4.686,4.686,0,1,1-4.686-4.686,4.686,4.686,0,0,1,4.686,4.686" transform="translate(-4.321 -6.253)" fill="#fff"/>
      <path id="패스_176" data-name="패스 176" d="M20.115,23.51a1.94,1.94,0,1,1-1.94-1.941,1.863,1.863,0,0,1,.681.126,1.025,1.025,0,0,0-.353.776,1.04,1.04,0,0,0,1.039,1.039,1,1,0,0,0,.561-.167.748.748,0,0,1,.012.167" transform="translate(-5.878 -7.81)" fill="#4b4b4b"/>
      <path id="패스_177" data-name="패스 177" d="M47.028,13.645c1.084.808,1.823.195,1.122-.776a11.569,11.569,0,0,0-5.333-4.183c-1.148-.392-1.947-.119-2.279.409s-.514,1.6,1.361,2.121a14.6,14.6,0,0,1,5.129,2.429" transform="translate(-14.6 -3.078)" fill="#4b4b4b"/>
      <path id="패스_178" data-name="패스 178" d="M11.078,13.645c-1.084.808-1.823.195-1.122-.776A11.569,11.569,0,0,1,15.29,8.687c1.148-.392,1.947-.119,2.279.409s.514,1.6-1.361,2.121a14.6,14.6,0,0,0-5.129,2.429" transform="translate(-3.506 -3.078)" fill="#4b4b4b"/>
    </g>
  </g>
</svg>
