<svg xmlns="http://www.w3.org/2000/svg" xmlns:xlink="http://www.w3.org/1999/xlink" width="122.529" height="152.957" viewBox="0 0 122.529 152.957">
  <defs>
    <clipPath id="clip-path">
      <rect id="사각형_15" data-name="사각형 15" width="73.904" height="35.918" transform="translate(0)" fill="none"/>
    </clipPath>
  </defs>
  <g id="그룹_68" data-name="그룹 68" transform="translate(-105.063 -130.531)">
    <path id="패스_140" data-name="패스 140" d="M-20773.324-21092.76l6.754,10.723,6.758,3.146,35.533,8.152s10.6-2.213,10.6-2.561.7-6.873,0-7.336a28.184,28.184,0,0,0-8.27-4.314c-5.477-1.98-25.4-7.35-27.143-7.811s-16.666-3.955-17.479-3.955-7.57.811-7.57.811Z" transform="translate(20904.461 21325.865)" fill="#fff"/>
    <g id="그룹_67" data-name="그룹 67" transform="translate(125.996 223.787)">
      <path id="패스_139" data-name="패스 139" d="M228.069,550.929s3.142,9.324,2.7,11.368,11.1,6.831,12.75-5.96" transform="translate(-203.957 -505.939)" fill="#fff" stroke="#2a2a2a" stroke-linecap="round" stroke-width="1.5"/>
      <path id="패스_136" data-name="패스 136" d="M130.577,374.7s-6.771.551-4.638,7.127S142.646,393.2,142.646,393.2" transform="translate(-125.523 -371.145)" fill="#fff" stroke="#2a2a2a" stroke-width="1.5"/>
      <path id="패스_137" data-name="패스 137" d="M197.709,426.173s-8.532,12.886-1.777,23.639,23.728,12.086,31.015,11.375c0,0,5.865,9.775,11.02,7.2s5.066-2.933,3.644-14.486c0,0,4-4.443,4-14.575" transform="translate(-177.387 -410.517)" fill="#fff" stroke="#2a2a2a" stroke-linecap="round" stroke-width="1.5"/>
      <path id="패스_138" data-name="패스 138" d="M368.387,423.24s15.819,10.576,19.906,1.866-13.861-8.371-17.062-13.961-20.559-12.8-20.559-12.8H318.285l-6.875,4.31" transform="translate(-308.251 -398.342)" fill="#fff" stroke="#2a2a2a" stroke-linecap="round" stroke-width="1.5"/>
    </g>
    <path id="패스_135" data-name="패스 135" d="M125.537,146.1s4.936-50.6,58.926-47.511c1.35.077,2.668.184,4.174.343,49.967,5.261,52.87,53.862,51.667,62.285,0,0,1.234,39.215-65.713,36.73S116.9,155.969,125.537,146.1Z" transform="translate(-13.695 35.047)" fill="#fff" stroke="#2a2a2a" stroke-miterlimit="10" stroke-width="1.5"/>
    <g id="그룹_14" data-name="그룹 14" transform="translate(120.104 171.407)">
      <g id="그룹_13" data-name="그룹 13" transform="translate(0 0)" clip-path="url(#clip-path)">
        <path id="패스_2" data-name="패스 2" d="M64.276,27.9a10.091,10.091,0,1,0-10.09-10.09A10.091,10.091,0,0,0,64.276,27.9m5.777-10.925A2.422,2.422,0,1,1,67.631,19.4a2.422,2.422,0,0,1,2.421-2.422M64.472,24.95a1.48,1.48,0,1,1,1.479-1.48,1.48,1.48,0,0,1-1.479,1.48M61.883,11.662a3.9,3.9,0,1,1-3.9,3.9,3.9,3.9,0,0,1,3.9-3.9" transform="translate(-6.735 -1.424)" fill="#363636"/>
        <path id="패스_3" data-name="패스 3" d="M13.7,3.273a3.029,3.029,0,0,0,.259-.283,1.264,1.264,0,0,1,.279-.285,2.541,2.541,0,0,1,.344-.239,1.818,1.818,0,0,1,.4-.211,3.966,3.966,0,0,1,.434-.157c.165-.02.307-.077.475-.085.158-.032.327-.024.491-.042.165.011.333,0,.493.028.168,0,.313.054.479.07a4.255,4.255,0,0,1,.44.142,1.862,1.862,0,0,1,.412.2,2.054,2.054,0,0,1,.363.247,1.783,1.783,0,0,1,.283.256c.154.16.271.267.271.267a1.993,1.993,0,0,0,.107-.374,1.188,1.188,0,0,0,.029-.458,1.786,1.786,0,0,0-.123-.605,2.089,2.089,0,0,0-.375-.658A2.817,2.817,0,0,0,18.123.5,3.139,3.139,0,0,0,17.285.13a3.034,3.034,0,0,0-1.862.032,3.125,3.125,0,0,0-.827.4,2.789,2.789,0,0,0-.615.608,2.056,2.056,0,0,0-.351.672,1.906,1.906,0,0,0-.108.633.967.967,0,0,0,.054.436,3.056,3.056,0,0,0,.122.365" transform="translate(0.769)" fill="#363636"/>
        <path id="패스_4" data-name="패스 4" d="M63.33,3.273a3.029,3.029,0,0,0,.259-.283,1.264,1.264,0,0,1,.279-.285,2.54,2.54,0,0,1,.344-.239,1.819,1.819,0,0,1,.4-.211,3.965,3.965,0,0,1,.434-.157c.165-.02.307-.077.475-.085.158-.032.327-.024.491-.042.165.011.333,0,.493.028.168,0,.313.054.479.07a4.254,4.254,0,0,1,.44.142,1.862,1.862,0,0,1,.412.2,2.055,2.055,0,0,1,.363.247,1.821,1.821,0,0,1,.283.256c.154.16.271.267.271.267a1.993,1.993,0,0,0,.107-.374,1.188,1.188,0,0,0,.029-.458,1.786,1.786,0,0,0-.123-.605,2.089,2.089,0,0,0-.375-.658A2.817,2.817,0,0,0,67.755.5,3.138,3.138,0,0,0,66.917.13a3.034,3.034,0,0,0-1.862.032,3.124,3.124,0,0,0-.827.4,2.789,2.789,0,0,0-.615.608,2.056,2.056,0,0,0-.351.672,1.905,1.905,0,0,0-.108.633.966.966,0,0,0,.054.436,3.054,3.054,0,0,0,.122.365" transform="translate(-8.388)" fill="#363636"/>
        <path id="패스_5" data-name="패스 5" d="M36.491,41.317a6.925,6.925,0,0,0,1.782.817,6.2,6.2,0,0,0,1.034.226,8.712,8.712,0,0,0,.935.079h.093l.486-.028a3.725,3.725,0,0,0,.514-.058,6.226,6.226,0,0,0,1-.223,6.929,6.929,0,0,0,1.779-.82,6.352,6.352,0,0,0,2.31-2.5,4.759,4.759,0,0,0,.454-1.286,4.008,4.008,0,0,0,.08-1.05,2.368,2.368,0,0,0-.094-.63c-.035-.137-.055-.21-.055-.21a.233.233,0,0,0-.449-.008s-.022.072-.062.207a2.784,2.784,0,0,1-.185.544,5.189,5.189,0,0,1-1.022,1.534,6.3,6.3,0,0,1-.917.785A7.071,7.071,0,0,1,41.7,39.8a5.925,5.925,0,0,1-.7.116,2.1,2.1,0,0,1-.35.031l-.338.013a5.5,5.5,0,0,1-.752-.051,5.792,5.792,0,0,1-.657-.113,7.072,7.072,0,0,1-2.466-1.111,6.411,6.411,0,0,1-.913-.785,5.04,5.04,0,0,1-1.018-1.545,3.542,3.542,0,0,1-.182-.523l-.074-.236a.246.246,0,0,0-.473.016l-.054.222a2.789,2.789,0,0,0-.091.652,4.536,4.536,0,0,0,.538,2.326,6.362,6.362,0,0,0,2.317,2.5" transform="translate(-2.942 -8.982)" fill="#363636"/>
        <path id="패스_6" data-name="패스 6" d="M14.781,27.9a10.091,10.091,0,1,0-10.09-10.09A10.091,10.091,0,0,0,14.781,27.9m5.777-10.925A2.422,2.422,0,1,1,18.136,19.4a2.422,2.422,0,0,1,2.422-2.422M14.977,24.95a1.48,1.48,0,1,1,1.48-1.48,1.48,1.48,0,0,1-1.48,1.48M12.388,11.662a3.9,3.9,0,1,1-3.9,3.9,3.9,3.9,0,0,1,3.9-3.9" transform="translate(2.397 -1.424)" fill="#363636"/>
        <path id="패스_7" data-name="패스 7" d="M4.87,34.473C2.177,34.476,0,36.226,0,38.381s2.191,3.9,4.885,3.9,4.874-1.753,4.869-3.908-2.19-3.9-4.884-3.9" transform="translate(0.816 -7.991)" fill="#fac6cd"/>
        <path id="패스_8" data-name="패스 8" d="M77.443,34.541c-2.647-.4-5.2.993-5.7,3.11s1.241,4.158,3.888,4.558,5.2-.993,5.7-3.11-1.241-4.158-3.888-4.558" transform="translate(-8.327 -7.991)" fill="#fac6cd"/>
      </g>
    </g>
    <path id="패스_133" data-name="패스 133" d="M116.068,194.2s-1.484-18.55,7.719-18.55,7.719,17.362,7.719,17.362" transform="translate(16.086 -44.373)" fill="#fff" stroke="#2a2a2a" stroke-linecap="round" stroke-width="1.5"/>
    <path id="패스_134" data-name="패스 134" d="M116.068,194.2s-1.484-18.55,7.719-18.55,7.719,17.362,7.719,17.362l-.691,5.379" transform="translate(63.231 -44.373)" fill="#fff" stroke="#2a2a2a" stroke-linecap="round" stroke-width="1.5"/>
  </g>
</svg>
