<svg xmlns="http://www.w3.org/2000/svg" xmlns:xlink="http://www.w3.org/1999/xlink" width="40" height="39.999" viewBox="0 0 40 39.999">
  <defs>
    <clipPath id="clip-path">
      <rect id="사각형_37" data-name="사각형 37" width="40" height="39.999" fill="none"/>
    </clipPath>
  </defs>
  <g id="그룹_47" data-name="그룹 47" clip-path="url(#clip-path)">
    <path id="패스_41" data-name="패스 41" d="M40,20a20.119,20.119,0,0,1-4.794,12.992A20,20,0,1,1,40,20" transform="translate(0 0)" fill="#e2e2e2"/>
    <path id="패스_42" data-name="패스 42" d="M41.79,23.879A20,20,0,0,1,4.943,34.661a20,20,0,0,0,31.91-23.94A19.924,19.924,0,0,1,41.79,23.879" transform="translate(-1.79 -3.882)" fill="#d2d2d2"/>
    <path id="패스_43" data-name="패스 43" d="M35.089,37.58a8.619,8.619,0,0,1-3.283,6.788c-.006.006-.018.011-.024.018a8.657,8.657,0,0,1-10.668,0c-.006-.006-.006-.006-.012-.006a8.633,8.633,0,0,1-3.3-6.8Z" transform="translate(-6.447 -13.606)" fill="#4b4b4b"/>
    <path id="패스_44" data-name="패스 44" d="M33.656,46.889a8.638,8.638,0,0,1-10.666,0c.6-2.148,3.655-3.382,5.333-1.349,1.577-2.014,4.731-.8,5.333,1.349" transform="translate(-8.324 -16.114)" fill="#fff"/>
    <path id="패스_45" data-name="패스 45" d="M34.719,37.58v.531A1.521,1.521,0,0,1,33.3,39.526a37.151,37.151,0,0,1-12.746,0,1.53,1.53,0,0,1-1.415-1.415V37.58Z" transform="translate(-6.931 -13.606)" fill="#fff"/>
    <path id="패스_46" data-name="패스 46" d="M19.716,18.86c-.013.02-.033.045-.045.065L16.2,23.952a.319.319,0,0,1-.431.089L10.6,20.8l-.058-.039a3.1,3.1,0,0,1-1.334-1.729,2.3,2.3,0,0,1-.1-.408c-.453-2.83,3.232-4.4,5.129-2.253l.233.259.1-.33a3.014,3.014,0,0,1,3.808-1.9,2.657,2.657,0,0,1,1.8,1.93,3.124,3.124,0,0,1-.466,2.532" transform="translate(-3.284 -5.161)" fill="#4b4b4b"/>
    <path id="패스_47" data-name="패스 47" d="M19.793,18.943c-.013.02-.033.045-.045.065l-3.467,5.027a.319.319,0,0,1-.431.089l-5.175-3.245-.058-.039a3.1,3.1,0,0,1-1.334-1.729c1.334,1.729,4.88,2.836,7.089,1.649,2.975-1.6,3.98-4.614,2.087-6.279a2.657,2.657,0,0,1,1.8,1.93,3.124,3.124,0,0,1-.466,2.532" transform="translate(-3.361 -5.243)" fill="#4b4b4b"/>
    <path id="패스_48" data-name="패스 48" d="M36.627,18.973c.013.02.033.045.045.065l3.467,5.027a.318.318,0,0,0,.431.089l5.176-3.245.058-.039a3.1,3.1,0,0,0,1.334-1.729,2.357,2.357,0,0,0,.1-.408c.453-2.83-3.232-4.4-5.129-2.253l-.233.259-.1-.33a3.015,3.015,0,0,0-3.808-1.9,2.657,2.657,0,0,0-1.8,1.93,3.124,3.124,0,0,0,.466,2.532" transform="translate(-13.059 -5.202)" fill="#4b4b4b"/>
    <path id="패스_49" data-name="패스 49" d="M45.8,21.947l-5.246,3.277a.317.317,0,0,1-.431-.089s-3.486-5.073-3.5-5.093a3.1,3.1,0,0,1-.537-2.117c.537,2.117,3.351,4.542,5.851,4.33,3.365-.285,5.486-2.653,4.41-4.933a2.658,2.658,0,0,1,.885,2.486A3.125,3.125,0,0,1,45.8,21.947" transform="translate(-13.058 -6.272)" fill="#4b4b4b"/>
  </g>
</svg>
