<svg id="그룹_62" data-name="그룹 62" xmlns="http://www.w3.org/2000/svg" xmlns:xlink="http://www.w3.org/1999/xlink" width="40" height="40" viewBox="0 0 40 40">
  <defs>
    <clipPath id="clip-path">
      <rect id="사각형_47" data-name="사각형 47" width="40" height="39.999" fill="none"/>
    </clipPath>
  </defs>
  <g id="그룹_61" data-name="그룹 61" transform="translate(0 0)" clip-path="url(#clip-path)">
    <path id="패스_107" data-name="패스 107" d="M40,20A20,20,0,1,1,20,0,20,20,0,0,1,40,20" transform="translate(0 0)" fill="#e2e2e2"/>
    <path id="패스_108" data-name="패스 108" d="M41.789,23.879A20,20,0,0,1,4.942,34.661a20,20,0,0,0,31.91-23.94,19.924,19.924,0,0,1,4.937,13.158" transform="translate(-1.789 -3.882)" fill="#d2d2d2"/>
    <path id="패스_109" data-name="패스 109" d="M31.772,48.315H25.935c-.815,0-1.483-1.039-1.483-2.308s8.8-1.27,8.8,0-.667,2.308-1.483,2.308" transform="translate(-8.853 -16.313)" fill="#4b4b4b"/>
    <path id="패스_110" data-name="패스 110" d="M17.225,40.21c.01-.005.027-.011.036-.016a19.522,19.522,0,0,1,8.018-1.613,20.377,20.377,0,0,1,8.009,1.613c3.9,1.677,2.67,2.839,1.426,2.42-.016-.006-.018,0-.027-.006a28.362,28.362,0,0,0-9.408-1.767,30.481,30.481,0,0,0-9.408,1.767.306.306,0,0,0-.045.016c-1.166.408-2.164-.655,1.4-2.414" transform="translate(-5.34 -13.969)" fill="#4b4b4b"/>
    <path id="패스_111" data-name="패스 111" d="M44.846,13.522c1.645-.741,2.209.57,1.244,1.194a29.347,29.347,0,0,1-7.628,3.335c-1.784.514-2.716-1.4-.058-2.21a46.875,46.875,0,0,0,6.443-2.32" transform="translate(-13.304 -4.816)" fill="#4b4b4b"/>
    <path id="패스_112" data-name="패스 112" d="M12.286,13.522c-1.645-.741-2.209.57-1.244,1.194a29.347,29.347,0,0,0,7.628,3.335c1.784.514,2.716-1.4.058-2.21a46.874,46.874,0,0,1-6.443-2.32" transform="translate(-3.827 -4.816)" fill="#4b4b4b"/>
    <path id="패스_113" data-name="패스 113" d="M46.806,19.9c-1.934.6-5.994,1.506-8.833,3.122a.33.33,0,0,0-.041.575A41.744,41.744,0,0,0,46,28.648a.171.171,0,0,0,.21-.262L43.22,24.805a.877.877,0,0,1,.061-1.191l3.629-3.532a.109.109,0,0,0-.1-.185" transform="translate(-13.679 -7.202)" fill="#4b4b4b"/>
    <path id="패스_114" data-name="패스 114" d="M10.7,19.9c1.934.6,5.994,1.506,8.833,3.122a.33.33,0,0,1,.041.575A41.745,41.745,0,0,1,11.5,28.648a.171.171,0,0,1-.21-.262l2.989-3.581a.877.877,0,0,0-.061-1.191l-3.629-3.532a.109.109,0,0,1,.1-.185" transform="translate(-3.822 -7.202)" fill="#4b4b4b"/>
  </g>
</svg>
